<svg width="32" height="32" viewBox="0 0 32 32" fill="none" xmlns="http://www.w3.org/2000/svg">
<path d="M23.2975 15.4555C23.0518 17.3292 22.9321 19.2178 22.9391 21.1082C23.5752 21.47 24.1355 21.9561 24.5878 22.5387C25.0637 23.1573 25.4146 23.8661 25.6201 24.6241C24.7718 24.5202 23.9188 24.4628 23.0645 24.4522C19.2258 24.3717 14.7634 25.1071 10.2115 26.7059C8.89964 27.1706 5.43369 28.2901 0 32C2.07054 28.8362 4.58617 26.0008 7.46595 23.5851C7.51613 23.4387 10.724 15.9275 13.362 12.3493C19.2401 4.34784 26.7885 -0.455999 32 0.0342616C27.7168 1.04771 24.3405 7.24184 23.2975 15.4555Z" fill="white"/>
<path d="M5.54789 14.2188C3.17341 15.5834 1.33676 19.8677 1.15749 25.0045C1.14399 25.6776 1.17332 26.351 1.2453 27.0204L5.93937 22.5276C4.33687 19.0372 4.12101 15.7993 5.54789 14.2188Z" fill="white"/>
</svg>
